HIERARCHY
ROOT Hips
{
	OFFSET 0.000000 0.000000 0.000000
	CHANNELS 6 Xposition Yposition Zposition Xrotation Yrotation Zrotation
	JOINT LeftUpLeg_virtual
	{
		OFFSET 0.000000 0.000000 0.000000
		CHANNELS 3 Xrotation Yrotation Zrotation
		JOINT LeftUpLeg
		{
			OFFSET 10.205400 -3.823500 0.155100
			CHANNELS 3 Xrotation Yrotation Zrotation
			JOINT LeftLeg
			{
				OFFSET 0.708757 -12.982077 0.567790
				CHANNELS 3 Xrotation Yrotation Zrotation
				JOINT LeftFoot
				{
					OFFSET -0.708756 -10.717838 -2.184338
					CHANNELS 3 Xrotation Yrotation Zrotation
					JOINT LeftToeBase
					{
						OFFSET 0.108149 -7.191104 7.560241
						CHANNELS 3 Xrotation Yrotation Zrotation
						JOINT LeftToe_End
						{
							OFFSET 0.070230 0.081724 4.490308
							CHANNELS 3 Xrotation Yrotation Zrotation
							End Site
							{
								OFFSET 0 0 0
							}
						}
					}
				}
			}
		}
	}
	JOINT RightUpLeg_virtual
	{
		OFFSET 0.000000 0.000000 0.000000
		CHANNELS 3 Xrotation Yrotation Zrotation
		JOINT RightUpLeg
		{
			OFFSET -10.205400 -3.823500 0.005500
			CHANNELS 3 Xrotation Yrotation Zrotation
			JOINT RightLeg
			{
				OFFSET -0.708756 -12.982134 0.610632
				CHANNELS 3 Xrotation Yrotation Zrotation
				JOINT RightFoot
				{
					OFFSET 0.708754 -10.717769 -1.945823
					CHANNELS 3 Xrotation Yrotation Zrotation
					JOINT RightToeBase
					{
						OFFSET -0.108140 -7.191069 7.372968
						CHANNELS 3 Xrotation Yrotation Zrotation
						JOINT RightToe_End
						{
							OFFSET -0.070227 0.081735 4.479403
							CHANNELS 3 Xrotation Yrotation Zrotation
							End Site
							{
								OFFSET 0 0 0
							}
						}
					}
				}
			}
		}
	}
	JOINT Spine_virtual
	{
		OFFSET 0.000000 0.000000 0.000000
		CHANNELS 3 Xrotation Yrotation Zrotation
		JOINT Spine
		{
			OFFSET 0.000000 6.876099 0.125700
			CHANNELS 3 Xrotation Yrotation Zrotation
			JOINT Spine1
			{
				OFFSET 0.000000 5.730043 0.104720
				CHANNELS 3 Xrotation Yrotation Zrotation
				JOINT Spine1_split
				{
					OFFSET 0.000000 5.730043 0.104720
					CHANNELS 3 Xrotation Yrotation Zrotation
					JOINT Spine2
					{
						OFFSET 0.000000 5.730043 0.104720
						CHANNELS 3 Xrotation Yrotation Zrotation
						JOINT Neck_virtual
						{
							OFFSET 0.000000 0.000000 0.000000
							CHANNELS 3 Xrotation Yrotation Zrotation
							JOINT Neck
							{
								OFFSET 0.000000 10.314075 0.188496
								CHANNELS 3 Xrotation Yrotation Zrotation
								JOINT Head
								{
									OFFSET 0.000000 7.643700 -2.377400
									CHANNELS 3 Xrotation Yrotation Zrotation
									JOINT HeadTop_End
									{
										OFFSET 0.000000 43.788605 -13.619600
										CHANNELS 3 Xrotation Yrotation Zrotation
										End Site
										{
											OFFSET 0 0 0
										}
									}
								}
							}
						}
						JOINT LeftShoulder_virtual
						{
							OFFSET 0.000000 0.000000 0.000000
							CHANNELS 3 Xrotation Yrotation Zrotation
							JOINT LeftShoulder
							{
								OFFSET 2.196100 4.412489 0.087492
								CHANNELS 3 Xrotation Yrotation Zrotation
								JOINT LeftShoulder_split
								{
									OFFSET 2.196100 4.412489 0.087492
									CHANNELS 3 Xrotation Yrotation Zrotation
									JOINT LeftArm
									{
										OFFSET 8.771219 -2.981674 -0.026999
										CHANNELS 3 Xrotation Yrotation Zrotation
										JOINT LeftForeArm
										{
											OFFSET 8.512804 0.000000 -0.000000
											CHANNELS 3 Xrotation Yrotation Zrotation
											JOINT LeftHand
											{
												OFFSET 18.484802 0.000000 -0.000000
												CHANNELS 3 Xrotation Yrotation Zrotation
												End Site
												{
													OFFSET 0 0 0
												}
											}
										}
									}
								}
							}
						}
						JOINT RightShoulder_virtual
						{
							OFFSET 0.000000 0.000000 0.000000
							CHANNELS 3 Xrotation Yrotation Zrotation
							JOINT RightShoulder
							{
								OFFSET -2.196100 4.412496 0.070690
								CHANNELS 3 Xrotation Yrotation Zrotation
								JOINT RightShoulder_split
								{
									OFFSET -2.196100 4.412496 0.070690
									CHANNELS 3 Xrotation Yrotation Zrotation
									JOINT RightArm
									{
										OFFSET -8.771282 -2.981682 -0.094208
										CHANNELS 3 Xrotation Yrotation Zrotation
										JOINT RightForeArm
										{
											OFFSET -8.494598 0.000000 0.000000
											CHANNELS 3 Xrotation Yrotation Zrotation
											JOINT RightHand
											{
												OFFSET -18.483803 0.000000 0.000001
												CHANNELS 3 Xrotation Yrotation Zrotation
												End Site
												{
													OFFSET 0 0 0
												}
											}
										}
									}
								}
							}
						}
					}
				}
			}
		}
	}
}
MOTION
Frames: 4
Frame Time: 0.03333333
0.141854 33.146542 -0.928173 0.000000 0.000000 0.000000 1.893566 -2.178097 -0.151065 -10.445404 -6.823937 14.651178 25.091270 -2.682376 -4.597273 -13.641749 16.410095 -10.542862 -0.003548 -0.000001 -0.000000 0.000000 0.000000 0.000000 1.893566 -2.178097 -0.151065 -6.678219 -3.830977 -14.089061 24.311440 2.182904 2.116056 -17.423140 -13.086893 10.488092 0.109671 -0.000010 0.000002 0.000000 0.000000 0.000000 1.893566 -2.178097 -0.151065 2.071421 0.264495 0.907996 3.430433 -0.015269 0.185037 0.000000 0.000000 0.000000 0.000000 0.000000 0.000000 3.430499 0.005499 0.178976 -3.527216 -0.011365 -0.032778 -2.723276 -0.261568 0.276206 0.000000 0.000000 0.000000 3.430499 0.005499 0.178976 0.742837 8.952356 -13.053776 0.000000 0.000000 0.000000 10.737607 -6.254789 -54.002614 0.000022 -32.994257 0.000020 0.000000 0.000000 0.000000 3.430499 0.005499 0.178976 1.078070 -8.352865 11.371672 0.000000 0.000000 0.000000 3.407865 18.890975 61.317327 -0.000003 23.538785 0.000014 0.000000 0.000000 0.000000 
0.041673 33.165825 -0.880419 0.000000 0.000000 0.000000 1.851622 -2.466740 0.460844 -13.121277 -6.871020 14.122015 29.202197 -3.176714 -3.981474 -11.495235 15.999662 -12.184981 -5.458104 0.000015 0.000001 0.000000 0.000000 0.000000 1.851622 -2.466740 0.460844 -7.313117 -3.646068 -14.733049 25.671264 2.583810 2.245343 -18.266311 -13.059226 10.206868 -0.267527 0.000009 -0.000002 0.000000 0.000000 0.000000 1.851622 -2.466740 0.460844 2.558808 -0.396992 0.427540 2.747828 -0.169164 0.053064 0.000000 0.000000 0.000000 0.000000 0.000000 0.000000 2.748699 -0.152292 0.049085 -2.889076 0.082213 -0.012974 -1.319717 0.514194 0.602907 0.000000 0.000000 0.000000 2.748699 -0.152292 0.049085 0.729837 8.654324 -13.018161 0.000000 0.000000 0.000000 11.156651 -7.294852 -54.080666 -0.000001 -32.921044 0.000001 0.000000 0.000000 0.000000 2.748699 -0.152292 0.049085 1.096793 -8.002332 11.568764 0.000000 0.000000 0.000000 3.614123 18.945275 61.044665 -0.000000 23.957210 0.000018 0.000000 0.000000 0.000000 
-0.321444 33.179317 -0.727966 0.000000 0.000000 0.000000 1.810774 -2.717881 1.084445 -21.088812 -5.050701 12.282451 41.375097 -3.202235 -3.089450 -8.588284 12.807232 -11.064638 -17.243986 0.000019 0.000008 0.000000 0.000000 0.000000 1.810774 -2.717881 1.084445 -7.782120 -3.461813 -14.643965 27.587406 2.939567 2.193450 -19.950732 -13.170913 9.307039 0.297293 0.000003 -0.000003 0.000000 0.000000 0.000000 1.810774 -2.717881 1.084445 3.154373 -1.207854 -0.068799 1.995519 -0.356287 -0.085877 0.000000 0.000000 0.000000 0.000000 0.000000 0.000000 1.997350 -0.343516 -0.087451 -2.167620 0.192985 0.012224 0.272888 1.446353 0.944674 0.000000 0.000000 0.000000 1.997350 -0.343516 -0.087451 0.716351 8.326971 -12.991429 0.000000 0.000000 0.000000 11.631038 -8.501355 -54.118768 -0.000000 -32.909450 -0.000001 0.000000 0.000000 0.000000 1.997350 -0.343516 -0.087451 1.093915 -7.533886 11.715203 0.000000 0.000000 0.000000 3.896495 19.033879 60.675535 -0.000006 24.640541 -0.000007 0.000000 0.000000 0.000000 
-0.761182 33.208385 -0.767826 0.000000 0.000000 0.000000 1.774704 -3.078464 1.643028 -22.259399 -0.557807 11.377618 41.992577 -3.070316 -2.916498 -7.974353 7.830349 -10.172447 -18.370217 0.000024 0.000008 0.000000 0.000000 0.000000 1.774704 -3.078464 1.643028 -8.866360 -3.050943 -14.096804 29.820394 3.250994 1.931620 -21.359921 -13.360472 8.178766 1.304723 -0.000059 0.061602 0.000000 0.000000 0.000000 1.774704 -3.078464 1.643028 3.772044 -1.942151 -0.564169 1.297266 -0.529579 -0.216042 0.000000 0.000000 0.000000 0.000000 0.000000 0.000000 1.299990 -0.520884 -0.215222 -1.452506 0.299959 0.044721 1.976797 2.390918 1.235606 0.000000 0.000000 0.000000 1.299990 -0.520884 -0.215222 0.702425 7.944977 -12.955618 0.000000 0.000000 0.000000 12.132204 -9.857728 -54.116921 0.000002 -32.955103 0.000014 0.000000 0.000000 0.000000 1.299990 -0.520884 -0.215222 1.088592 -6.982296 11.896891 0.000000 0.000000 0.000000 4.287060 19.240400 60.112912 0.000023 25.493336 -0.000025 0.000000 0.000000 0.000000 
